<?xml version="1.0" standalone="no"?>
<!DOCTYPE svg PUBLIC "-//W3C//DTD SVG 20010904//EN"
 "http://www.w3.org/TR/2001/REC-SVG-20010904/DTD/svg10.dtd">
<svg version="1.0" xmlns="http://www.w3.org/2000/svg"
 width="1000.000000pt" height="1000.000000pt" viewBox="0 0 1000.000000 1000.000000"
 preserveAspectRatio="xMidYMid meet">
<metadata>
Created by potrace 1.14, written by Peter Selinger 2001-2017
</metadata>
<g transform="translate(0.000000,1000.000000) scale(0.100000,-0.100000)"
fill="#000000" stroke="none">
<path d="M5066 8848 c3 -4 0 -8 -6 -8 -6 0 -18 -7 -27 -15 -8 -8 -19 -12 -25
-9 -6 4 -9 3 -6 -2 3 -5 -3 -17 -14 -26 -10 -10 -18 -16 -18 -13 0 3 -6 0 -14
-7 -10 -9 -11 -15 -2 -20 7 -5 3 -8 -9 -8 -11 0 -27 -9 -35 -20 -8 -11 -20
-20 -28 -20 -7 0 -10 -4 -7 -10 6 -9 -8 -14 -27 -11 -5 0 -8 -3 -8 -9 0 -5
-13 -10 -28 -10 -15 0 -34 -6 -41 -12 -11 -10 -13 -10 -7 0 5 7 1 12 -9 12 -9
0 -14 -4 -11 -8 3 -5 -1 -9 -9 -9 -8 0 -12 4 -9 9 3 4 -2 8 -11 8 -10 0 -14
-5 -9 -12 6 -10 4 -10 -7 0 -7 6 -20 12 -28 12 -14 0 -14 -1 -1 -10 8 -5 12
-10 7 -10 -4 0 -16 6 -27 12 -16 10 -24 10 -40 0 -11 -7 -20 -8 -20 -3 0 8
-23 8 -40 0 -9 -4 -34 -6 -83 -8 -32 -1 -46 -5 -41 -12 5 -8 1 -8 -14 0 -25
14 -43 14 -22 1 11 -7 3 -10 -30 -10 -34 0 -41 -3 -30 -11 11 -7 7 -9 -17 -5
-18 2 -33 1 -33 -4 0 -4 -10 -6 -22 -2 -14 3 -19 2 -14 -6 5 -8 -3 -12 -23
-12 -16 0 -33 -4 -36 -10 -3 -5 -21 -10 -40 -10 -19 0 -37 -4 -40 -10 -3 -5
-16 -10 -28 -10 -18 0 -19 -2 -7 -10 11 -7 5 -10 -23 -10 -23 0 -36 -4 -32
-10 4 -6 -6 -10 -22 -10 -22 0 -25 -2 -13 -10 13 -8 12 -10 -5 -11 -11 -1 -24
-1 -28 0 -5 1 -6 -3 -3 -8 4 -5 -9 -15 -28 -22 -19 -7 -33 -16 -30 -21 5 -7
-18 -13 -39 -9 -5 1 -6 -3 -2 -9 3 -5 -1 -10 -10 -10 -10 0 -31 -11 -47 -25
-16 -14 -35 -22 -40 -19 -7 4 -8 2 -4 -4 4 -7 1 -12 -8 -12 -9 0 -16 -4 -16
-10 0 -5 -7 -10 -16 -10 -18 0 -46 -25 -37 -34 4 -3 -1 -6 -10 -6 -10 0 -17
-6 -17 -12 0 -9 -4 -8 -10 2 -9 13 -10 13 -11 0 -1 -8 -1 -18 0 -22 0 -5 -2
-7 -7 -7 -19 3 -33 -2 -27 -11 3 -5 0 -10 -7 -10 -8 0 -20 -9 -28 -20 -8 -11
-20 -20 -28 -20 -7 0 -10 -4 -7 -10 3 -5 -1 -10 -10 -10 -9 0 -14 -4 -11 -8 2
-4 -9 -9 -25 -10 -30 -2 -95 39 -82 52 4 3 0 6 -9 6 -8 0 -23 9 -33 20 -10 11
-24 20 -32 20 -7 0 -13 5 -13 10 0 6 -7 10 -16 10 -9 0 -12 5 -8 12 4 6 3 8
-4 4 -6 -3 -17 -1 -24 6 -13 12 -23 18 -80 51 -13 6 -30 20 -39 30 -9 9 -21
17 -27 17 -6 0 -27 9 -47 20 -20 11 -44 20 -55 20 -11 0 -20 5 -20 10 0 6 -11
10 -24 10 -14 0 -28 5 -31 10 -3 6 -19 10 -36 10 -16 0 -29 4 -29 8 0 10 -4
10 -79 12 -36 1 -49 5 -40 11 8 5 9 9 3 9 -6 0 -14 -3 -18 -7 -6 -6 -17 -10
-56 -17 -44 -8 -116 -56 -103 -70 3 -3 1 -6 -6 -6 -13 0 -67 -50 -54 -50 4 0
0 -5 -9 -11 -10 -5 -18 -14 -18 -20 0 -5 -9 -19 -20 -31 -11 -12 -20 -30 -20
-40 0 -11 -4 -17 -8 -14 -4 2 -9 -7 -10 -22 -1 -14 -6 -28 -10 -31 -11 -8 -28
-47 -31 -72 0 -5 -5 -8 -9 -5 -7 4 -11 -10 -14 -51 -1 -7 -4 -13 -7 -13 -6 0
-11 -26 -14 -67 0 -7 -4 -13 -7 -13 -4 0 -8 -19 -8 -42 -1 -24 -6 -44 -11 -46
-6 -2 -11 -8 -11 -13 0 -6 4 -8 8 -5 4 2 9 -5 9 -17 2 -17 0 -19 -7 -7 -6 10
-10 -28 -10 -110 0 -87 -4 -130 -12 -139 -8 -8 -8 -11 -2 -8 8 5 12 -17 14
-71 4 -132 5 -140 12 -136 7 5 13 -37 9 -60 -1 -4 3 -14 9 -21 6 -7 12 -29 13
-48 1 -19 5 -33 10 -30 4 2 7 -7 7 -21 0 -14 4 -26 8 -26 4 0 9 -12 10 -26 1
-14 9 -32 17 -40 8 -9 13 -20 10 -25 -4 -5 -1 -9 4 -9 6 0 11 -9 11 -21 0 -11
5 -17 10 -14 6 3 10 0 10 -8 0 -21 26 -68 33 -60 4 3 7 -4 7 -16 0 -12 4 -19
10 -16 6 3 10 -4 10 -17 0 -18 -2 -20 -10 -8 -9 13 -10 13 -10 0 0 -8 -9 -21
-20 -28 -25 -15 -139 -14 -159 2 -11 8 -13 8 -7 -1 4 -8 2 -13 -8 -13 -8 0
-17 4 -20 8 -3 5 -33 9 -66 10 -34 1 -67 5 -74 10 -20 16 -104 14 -129 -3 -13
-8 -27 -12 -30 -8 -4 3 -7 2 -7 -4 0 -6 -9 -13 -20 -16 -13 -3 -20 -14 -20
-29 0 -18 -2 -20 -10 -8 -8 12 -10 8 -11 -15 -1 -16 -1 -36 0 -44 2 -7 -1 -11
-6 -8 -5 3 -9 -3 -9 -13 0 -10 4 -16 8 -14 4 3 8 -20 8 -51 0 -35 4 -54 10
-50 6 3 10 -5 10 -19 0 -14 9 -41 20 -61 11 -20 20 -42 20 -50 0 -8 5 -15 10
-15 6 0 10 -5 10 -11 0 -6 11 -25 25 -41 14 -16 22 -35 19 -40 -4 -7 -2 -8 4
-4 7 4 12 1 12 -8 0 -9 3 -16 8 -16 4 0 12 -10 17 -22 6 -13 16 -22 23 -21 7
2 11 -3 9 -10 -1 -6 4 -11 11 -9 8 1 11 -2 8 -7 -4 -5 3 -16 14 -24 11 -7 17
-17 12 -21 -4 -4 -2 -7 3 -6 23 5 35 -1 35 -17 0 -9 3 -13 6 -10 9 9 47 -20
50 -38 1 -8 -2 -13 -7 -9 -5 3 -9 -7 -9 -21 0 -15 -4 -24 -10 -20 -6 4 -10 -6
-10 -22 -1 -31 -23 -67 -35 -55 -5 4 -5 -1 -2 -10 4 -10 2 -18 -4 -18 -6 0 -7
-4 -4 -10 3 -5 1 -10 -4 -10 -6 0 -11 -9 -11 -20 0 -11 -4 -20 -10 -20 -5 0
-10 -13 -10 -30 0 -16 -3 -30 -7 -30 -5 0 -13 -11 -20 -25 -8 -19 -8 -23 0
-19 8 5 7 2 0 -7 -7 -7 -13 -21 -13 -32 0 -12 -4 -16 -12 -11 -8 5 -7 0 2 -11
8 -10 10 -16 3 -12 -7 5 -11 1 -11 -10 1 -23 -5 -47 -14 -53 -4 -4 -9 -22 -10
-42 -2 -20 -6 -34 -10 -31 -7 3 -13 -55 -9 -79 0 -5 -4 -8 -10 -8 -8 0 -7 -6
2 -17 10 -11 10 -14 1 -9 -12 7 -14 -20 -14 -194 0 -41 0 -145 1 -230 0 -85 0
-168 1 -184 0 -15 -5 -35 -12 -44 -10 -12 -10 -14 -1 -8 10 5 13 -18 14 -106
1 -62 1 -124 0 -138 -2 -20 0 -22 8 -10 8 12 10 11 8 -7 0 -12 -4 -20 -7 -18
-3 2 -6 -5 -6 -15 0 -10 3 -17 7 -14 4 2 8 -26 9 -63 3 -96 3 -102 12 -97 4 3
8 -23 8 -58 0 -44 3 -59 10 -48 7 11 10 2 10 -32 0 -26 4 -49 9 -52 5 -3 9
-16 8 -30 0 -31 24 -128 36 -143 6 -9 5 -13 -4 -13 -11 0 -11 -2 -2 -8 7 -5
14 -20 15 -34 1 -15 6 -24 10 -22 4 3 8 -6 8 -20 0 -14 6 -26 13 -26 8 0 7 -4
-3 -10 -10 -6 -11 -10 -2 -10 6 0 12 -9 12 -19 0 -11 4 -21 10 -23 5 -1 10
-20 12 -40 1 -20 6 -34 10 -32 4 3 8 -6 8 -20 0 -14 5 -26 10 -26 6 0 10 -9
10 -20 0 -10 11 -39 24 -62 13 -24 21 -49 18 -57 -3 -8 0 -11 7 -7 7 5 11 -1
11 -13 0 -12 5 -21 11 -21 5 0 8 -4 5 -8 -3 -5 3 -25 14 -44 10 -20 16 -39 12
-44 -4 -4 -1 -4 6 0 7 4 12 1 12 -8 0 -8 11 -35 25 -59 13 -25 21 -48 17 -52
-4 -5 -1 -5 6 -1 7 4 12 1 12 -8 0 -9 5 -16 10 -16 6 0 10 -10 10 -22 0 -12 3
-18 7 -15 7 8 33 -38 33 -59 0 -8 5 -14 10 -14 6 0 10 -5 10 -11 0 -6 6 -16
13 -23 6 -7 23 -28 37 -46 14 -18 31 -39 38 -46 6 -7 12 -15 12 -18 0 -5 8
-15 52 -68 10 -11 15 -25 11 -31 -3 -6 -1 -7 5 -3 7 4 12 1 12 -8 0 -9 7 -16
17 -16 9 0 13 -3 10 -6 -4 -4 3 -15 15 -25 11 -11 17 -19 12 -19 -5 0 1 -10
14 -22 12 -13 53 -56 90 -95 38 -40 71 -73 74 -73 3 0 22 -15 40 -33 64 -59
98 -87 109 -87 5 0 8 -4 5 -8 -3 -5 7 -15 22 -23 15 -8 39 -26 54 -41 14 -16
31 -28 38 -28 6 0 8 -4 5 -10 -5 -9 6 -14 26 -12 8 1 8 -32 0 -38 -3 -3 -11
-14 -18 -25 -6 -11 -16 -19 -22 -17 -6 1 -10 -1 -10 -5 3 -20 -2 -34 -11 -28
-5 3 -10 -1 -10 -9 0 -9 -4 -16 -10 -16 -5 0 -10 -7 -10 -16 0 -8 -4 -12 -10
-9 -5 3 -10 -3 -10 -14 0 -12 -4 -21 -10 -21 -5 0 -10 -7 -10 -16 0 -9 -5 -12
-12 -8 -6 4 -8 3 -5 -3 3 -5 -1 -22 -9 -37 -7 -16 -14 -40 -14 -55 0 -15 -6
-33 -12 -40 -11 -11 -10 -12 2 -6 13 8 13 7 1 -8 -11 -14 -11 -17 0 -17 11 0
11 -2 1 -8 -13 -9 -12 -38 2 -61 7 -10 6 -12 -4 -6 -9 5 -11 4 -6 -3 8 -14 15
-45 18 -84 1 -15 6 -24 10 -22 8 5 12 -15 9 -51 -2 -17 0 -17 8 -5 9 12 11 9
11 -13 0 -16 -4 -26 -10 -22 -5 3 -10 1 -10 -4 0 -6 -15 -11 -32 -11 -25 0
-29 -3 -18 -10 11 -7 5 -10 -23 -10 -23 0 -36 -4 -32 -10 3 -5 -3 -10 -14 -10
-12 0 -21 -5 -21 -11 0 -5 -4 -8 -9 -5 -5 3 -14 -1 -21 -9 -7 -8 -19 -15 -27
-15 -8 0 -12 -4 -9 -8 3 -5 -4 -15 -15 -22 -10 -8 -19 -20 -19 -28 0 -7 -4
-11 -8 -8 -16 9 -14 -84 2 -99 17 -18 30 -20 20 -4 -4 8 0 8 15 0 11 -7 21
-16 21 -21 0 -6 3 -9 8 -9 18 3 33 -2 28 -9 -2 -4 3 -8 12 -9 44 -3 60 -8 56
-15 -4 -7 35 -13 59 -9 4 0 7 -3 7 -9 0 -6 3 -9 8 -9 25 4 72 -2 68 -9 -3 -5
1 -9 9 -9 8 0 11 5 8 11 -3 6 0 5 8 -1 7 -7 30 -13 52 -13 21 0 36 -4 33 -8
-2 -4 5 -8 17 -9 65 -2 107 -8 107 -15 0 -4 29 -8 64 -8 36 0 68 -5 71 -10 5
-8 12 -7 23 2 12 10 14 10 8 1 -4 -8 -1 -13 9 -13 10 0 14 5 9 13 -6 9 -4 10
7 0 7 -7 38 -13 70 -13 32 0 61 -5 64 -10 4 -6 12 -10 18 -9 7 1 47 1 90 0 60
-1 76 -4 71 -13 -5 -9 -2 -9 9 1 9 7 17 9 17 3 0 -8 107 -16 178 -13 13 0 21
-3 18 -8 -7 -10 20 -9 30 2 4 4 12 2 19 -3 6 -5 22 -9 36 -8 13 0 93 0 177 -1
120 -1 152 -4 146 -13 -5 -9 -2 -9 9 1 9 7 17 9 17 4 0 -11 24 -11 475 -11
187 0 357 -1 378 -2 26 -1 37 3 32 10 -4 7 2 6 14 -2 18 -11 23 -11 30 1 7 11
10 11 15 0 5 -11 7 -11 12 -1 3 6 17 12 30 12 18 0 23 -4 18 -12 -6 -10 -4
-10 7 -2 8 7 65 12 139 14 182 3 198 4 206 12 4 4 13 3 20 -3 7 -6 19 -7 26
-3 15 10 25 11 109 13 45 1 58 4 53 14 -5 8 -2 8 9 -2 13 -10 20 -11 31 -2 8
6 49 12 95 12 53 0 79 4 75 11 -4 6 1 6 14 -1 24 -13 43 -15 24 -2 -8 5 9 9
45 10 114 4 123 4 123 13 0 4 34 8 75 8 43 0 75 4 75 10 0 6 5 10 11 10 5 0 7
-6 3 -12 -6 -10 -4 -10 7 0 7 6 32 12 56 12 24 0 43 5 43 10 0 6 18 10 40 10
25 0 40 5 40 13 0 8 3 7 10 -3 7 -12 12 -12 22 -2 6 6 29 12 50 12 21 0 38 5
38 10 0 6 18 10 40 10 22 0 40 5 40 10 0 6 3 9 8 9 24 -4 52 2 47 11 -5 9 16
15 38 11 5 -1 6 3 2 9 -3 5 1 10 9 10 9 0 16 6 16 14 0 8 8 13 18 12 11 0 16
6 16 17 -2 13 1 15 11 7 9 -7 20 -6 40 4 15 8 40 13 56 11 16 -2 27 -1 25 4
-3 4 1 8 9 8 8 0 12 -4 10 -8 -6 -9 22 -6 31 4 4 4 29 7 56 7 30 0 47 4 43 10
-4 6 8 10 30 10 22 0 34 4 30 10 -4 6 6 10 24 10 16 0 33 4 36 10 3 5 15 10
26 10 10 0 19 5 19 11 0 5 4 8 9 4 5 -3 16 2 24 10 9 8 21 15 27 15 6 0 18 7
27 15 8 8 19 12 25 9 6 -4 8 -3 5 3 -4 5 5 16 18 23 14 7 25 17 25 22 0 4 7 8
17 8 9 0 13 3 10 6 -3 4 7 19 23 34 17 16 30 33 30 40 0 6 4 9 8 6 5 -3 15 4
22 15 8 10 25 19 38 19 13 0 20 4 17 10 -3 6 1 10 10 10 9 0 23 7 32 15 8 8
19 13 24 10 5 -4 9 -1 9 4 0 6 7 11 16 11 18 0 46 25 37 34 -4 3 3 6 14 6 23
0 46 23 35 35 -4 5 -2 5 5 1 6 -3 18 3 26 14 7 11 17 17 21 12 4 -4 7 -2 6 3
-5 23 1 35 17 35 9 0 14 3 11 6 -4 3 7 18 23 33 16 15 26 31 22 34 -3 4 0 7 9
7 8 0 21 12 29 28 8 15 22 36 32 46 9 11 17 26 17 33 0 7 5 13 10 13 6 0 10 9
10 21 0 11 5 17 10 14 9 -5 15 15 11 38 0 4 2 7 7 7 4 0 13 15 20 33 7 17 18
40 23 51 8 14 8 16 -3 11 -10 -6 -11 -5 0 6 6 7 12 26 12 42 0 15 4 26 9 23 5
-4 10 56 10 140 1 88 -2 143 -7 140 -6 -3 -10 0 -9 7 1 47 -4 77 -14 71 -6 -3
-10 1 -9 12 4 36 0 55 -10 49 -5 -3 -10 3 -10 14 0 12 -4 21 -10 21 -5 0 -10
9 -10 21 0 11 -4 17 -10 14 -5 -3 -10 -1 -10 5 0 14 -46 60 -60 60 -6 0 -9 4
-6 9 5 8 -22 16 -86 25 -15 2 -25 0 -22 -5 3 -5 0 -9 -5 -9 -6 0 -11 6 -11 13
0 9 -2 9 -8 0 -4 -6 -14 -13 -22 -15 -22 -5 -100 -89 -100 -108 0 -9 -9 -26
-20 -38 -14 -14 -16 -22 -8 -22 8 0 6 -5 -4 -11 -12 -7 -24 -6 -38 1 -11 6
-20 7 -20 3 0 -14 -31 37 -35 57 -2 11 -7 25 -11 32 -4 6 -3 8 2 5 6 -3 11 4
11 16 2 18 0 19 -8 7 -8 -12 -9 -9 -7 10 2 14 8 28 13 32 6 5 6 8 -1 8 -7 0
-12 22 -13 56 0 32 -5 62 -10 68 -6 7 -11 30 -12 53 -2 23 -6 40 -11 37 -7 -5
-13 36 -9 59 1 5 -3 6 -9 2 -5 -3 -10 3 -10 14 0 12 -4 21 -10 21 -5 0 -10 9
-10 20 0 11 -4 20 -8 20 -5 0 -9 7 -10 15 -1 8 -3 22 -4 30 -1 8 -5 12 -10 9
-5 -3 -8 15 -7 40 2 34 9 51 26 66 13 11 21 25 18 30 -3 6 -1 10 4 10 6 0 11
7 11 16 0 8 5 12 10 9 6 -4 10 -3 9 2 -3 20 2 44 9 39 4 -2 9 7 10 22 1 14 6
28 10 31 13 9 28 48 31 79 1 15 3 15 11 2 8 -12 10 -9 10 12 0 15 5 30 10 33
6 3 10 17 10 31 0 14 4 22 10 19 6 -4 10 5 10 19 0 14 5 26 10 26 6 0 10 19
11 43 0 32 2 37 9 22 7 -15 9 -10 9 23 1 24 5 41 9 38 4 -2 9 7 10 21 1 14 6
31 10 37 5 6 9 27 11 46 1 19 6 39 11 44 6 6 10 25 10 44 0 18 3 31 8 29 4 -3
8 10 9 29 4 46 7 58 15 65 4 3 8 43 9 88 1 50 5 78 10 70 6 -10 8 -8 6 8 0 12
-4 20 -8 17 -9 -5 -5 23 4 32 12 12 8 26 -5 18 -10 -6 -10 -5 -1 7 16 20 17
297 0 318 -9 12 -9 13 1 7 15 -9 15 -1 2 24 -6 12 -7 21 0 25 6 4 6 15 0 31
-6 14 -10 55 -10 90 0 49 -3 63 -12 58 -10 -6 -10 -4 0 7 15 16 16 33 1 23 -8
-5 -8 -1 0 14 7 14 8 23 1 27 -5 3 -10 21 -10 39 0 17 -6 38 -12 45 -7 8 -8
11 -2 8 6 -3 11 0 11 8 0 8 -4 12 -9 9 -7 -4 -12 31 -12 88 0 9 -3 15 -8 12
-4 -3 -8 11 -8 31 0 23 -4 34 -11 30 -6 -4 -10 -1 -8 6 4 32 -2 60 -11 54 -8
-5 -14 38 -9 71 0 4 -4 10 -10 13 -6 4 -12 19 -13 33 -1 15 -6 24 -10 22 -4
-3 -8 6 -8 20 0 14 -5 26 -11 26 -5 0 -8 4 -5 8 3 5 -1 20 -9 35 -7 15 -15 37
-17 49 -2 13 -7 26 -11 29 -5 4 -10 18 -10 32 -1 14 -5 23 -9 20 -5 -2 -8 7
-8 21 0 14 -3 26 -7 26 -9 0 -33 49 -33 67 0 7 -5 13 -11 13 -5 0 -8 4 -4 9 3
5 1 12 -4 15 -15 10 -50 84 -43 92 4 4 1 4 -5 0 -7 -4 -13 -2 -13 4 0 6 -7 18
-15 26 -8 8 -12 21 -9 29 4 8 1 15 -5 15 -8 0 -8 4 1 14 7 8 16 12 21 9 4 -2
7 2 7 11 0 8 4 16 8 18 12 5 72 95 72 108 0 6 5 8 10 5 6 -3 10 5 10 19 0 13
5 26 10 28 6 2 11 17 13 35 1 17 5 29 10 26 4 -2 7 5 7 16 0 12 4 21 8 21 7 0
12 33 15 97 0 7 4 10 7 8 4 -3 7 9 6 25 0 17 -4 30 -8 30 -5 0 -8 9 -8 20 0
11 -5 20 -11 20 -5 0 -7 5 -4 10 3 6 -1 10 -10 10 -9 0 -13 5 -10 10 3 6 -1
10 -10 10 -9 0 -13 5 -10 11 4 6 1 10 -6 8 -32 -4 -60 2 -54 11 9 14 -8 12
-24 -2 -8 -8 -11 -8 -8 -2 8 14 -41 16 -49 3 -3 -5 -18 -9 -34 -9 -16 0 -32
-5 -35 -10 -5 -8 -12 -7 -23 2 -13 11 -14 11 -8 0 6 -10 -21 -13 -138 -11 -80
0 -144 5 -141 9 3 4 -2 10 -10 14 -9 3 -15 18 -15 36 0 18 4 29 10 25 6 -3 10
3 10 14 0 12 5 21 10 21 6 0 10 9 10 20 0 11 5 20 10 20 6 0 9 3 9 8 -3 19 2
33 11 27 6 -4 10 5 10 20 0 14 4 24 9 20 6 -3 10 3 10 12 1 39 5 53 13 53 4 0
8 8 8 18 0 10 6 24 13 31 10 11 9 12 -3 6 -12 -6 -13 -5 -2 6 6 7 12 26 12 42
0 15 4 26 8 23 4 -2 9 11 10 31 2 20 7 44 12 54 7 11 7 20 0 24 -5 3 -10 12
-10 18 0 7 4 6 10 -3 7 -10 10 20 11 95 1 61 1 113 0 117 0 3 -1 45 -2 92 -1
47 -4 86 -8 86 -7 0 -13 44 -14 103 0 15 -4 27 -8 27 -4 0 -9 12 -12 28 -12
64 -19 88 -28 97 -5 5 -9 22 -9 38 0 16 -4 26 -10 22 -6 -4 -10 7 -10 25 0 18
-4 29 -10 25 -5 -3 -10 3 -10 14 0 12 -4 21 -10 21 -5 0 -10 9 -10 20 0 11 -4
20 -10 20 -5 0 -10 7 -10 16 0 9 -5 12 -12 8 -6 -4 -8 -3 -4 4 3 6 -1 17 -9
25 -8 9 -15 20 -15 25 0 5 -14 23 -30 41 -17 17 -25 31 -18 31 9 0 9 3 -2 9
-8 6 -18 7 -22 5 -5 -3 -7 0 -6 6 2 7 -6 17 -17 23 -10 7 -25 18 -33 25 -7 7
-17 10 -22 7 -5 -3 -10 -1 -12 4 -1 5 -19 12 -38 14 -19 3 -35 6 -35 7 0 1
-14 3 -32 4 -17 1 -29 -2 -27 -6 3 -4 -16 -8 -41 -8 -34 0 -44 -3 -39 -12 5
-10 4 -10 -5 -2 -10 9 -19 9 -39 -2 -14 -7 -30 -10 -35 -7 -6 3 -7 1 -3 -5 5
-8 -2 -12 -18 -12 -14 0 -26 -5 -26 -11 0 -5 -4 -8 -9 -4 -5 3 -17 -2 -25 -11
-11 -10 -16 -11 -16 -3 0 8 -5 7 -17 -3 -10 -9 -24 -13 -32 -10 -8 3 -11 0 -7
-7 5 -7 -1 -11 -14 -11 -13 0 -19 -4 -14 -11 4 -7 1 -10 -7 -7 -8 3 -21 0 -29
-8 -8 -7 -22 -14 -30 -16 -8 -2 -23 -11 -32 -21 -9 -10 -19 -18 -22 -18 -24 3
-30 0 -16 -9 12 -8 11 -10 -7 -10 -13 0 -23 -4 -23 -10 0 -5 -7 -10 -16 -10
-9 0 -28 -13 -43 -29 -34 -37 -93 -70 -120 -68 -11 0 -17 5 -15 9 3 4 0 8 -6
8 -6 0 -25 13 -43 30 -18 16 -37 30 -42 30 -6 0 -17 9 -25 20 -8 11 -20 20
-28 20 -7 0 -10 5 -6 12 4 6 3 8 -4 4 -6 -3 -17 1 -25 9 -9 8 -21 15 -27 15
-6 0 -8 5 -4 12 4 6 3 8 -4 4 -6 -3 -18 2 -28 11 -10 10 -20 18 -23 18 -3 0
-5 3 -4 7 2 5 0 7 -5 7 -19 -3 -45 2 -39 7 7 7 -81 54 -100 54 -7 0 -13 4 -13
8 0 5 -18 15 -40 22 -21 7 -37 17 -34 21 3 5 -4 9 -15 9 -11 0 -23 5 -26 10
-3 6 -17 10 -31 10 -14 0 -23 4 -20 8 2 4 -12 9 -32 10 -20 2 -40 8 -44 15 -6
9 -8 8 -8 -3 0 -11 -2 -12 -8 -3 -5 7 -20 14 -35 15 -15 1 -27 5 -27 9 0 6 -4
7 -57 10 -20 1 -30 6 -26 13 4 6 -2 4 -12 -4 -10 -8 -16 -10 -13 -4 5 7 -21
11 -74 12 -45 2 -85 5 -89 8 -5 3 -9 25 -9 50 0 25 -7 56 -16 69 -9 14 -13 25
-10 25 4 0 -2 10 -14 22 -11 12 -20 26 -20 32 0 5 -3 7 -6 3 -3 -3 -20 8 -37
24 -27 26 -37 30 -83 28 -29 -1 -51 -6 -48 -11z"/>
<path d="M7951 6694 c0 -11 3 -14 6 -6 3 7 2 16 -1 19 -3 4 -6 -2 -5 -13z"/>
<path d="M7974 6388 c-11 -18 -13 -88 -3 -88 5 0 9 -7 9 -17 0 -9 3 -14 6 -11
3 4 18 -6 32 -20 26 -26 69 -41 55 -19 -4 6 0 8 10 4 11 -4 17 -1 17 7 0 8 6
16 13 19 10 3 10 9 0 26 -7 11 -13 26 -13 32 0 16 -65 79 -82 79 -8 0 -20 -6
-27 -12 -11 -10 -13 -10 -7 0 9 16 0 16 -10 0z"/>
<path d="M1983 6308 c1 -7 -4 -12 -10 -10 -9 1 -13 -13 -13 -48 0 -27 -4 -50
-10 -50 -5 0 -1 -9 10 -20 12 -12 19 -24 16 -29 -3 -4 1 -8 9 -8 8 0 12 4 9 9
-3 4 0 8 6 8 17 0 40 26 40 44 0 9 6 16 13 16 9 0 9 2 -1 9 -8 4 -13 11 -13
15 4 31 -1 66 -9 61 -5 -3 -10 -1 -10 4 0 6 -9 11 -20 11 -11 0 -19 -6 -17
-12z"/>
<path d="M8181 6163 c12 -14 12 -16 -1 -11 -11 4 -16 0 -16 -12 0 -10 5 -18
10 -17 6 1 10 -3 11 -10 0 -7 7 -18 15 -25 12 -11 12 -11 1 5 -12 15 -11 17 5
18 11 0 14 3 6 6 -6 2 -10 9 -7 14 4 5 -2 6 -12 2 -14 -5 -16 -3 -6 7 13 14 7
40 -9 40 -6 0 -4 -8 3 -17z"/>
<path d="M1904 6011 c4 -6 2 -11 -4 -11 -6 0 -18 -6 -26 -14 -11 -11 -11 -16
-1 -19 9 -4 9 -6 0 -6 -9 -1 -13 -17 -13 -48 0 -25 3 -44 6 -40 4 3 13 -1 21
-9 9 -8 22 -13 30 -10 8 3 22 6 31 6 15 0 15 2 2 10 -10 6 -11 10 -2 10 6 0
12 9 12 20 0 11 5 20 10 20 6 0 10 5 10 11 0 5 -6 7 -12 3 -10 -6 -10 -5 0 8
10 12 9 18 -3 28 -8 7 -12 16 -9 21 3 5 2 8 -3 7 -4 -1 -19 4 -32 11 -14 8
-21 9 -17 2z"/>
<path d="M8280 5990 c0 -5 -9 -10 -20 -10 -17 0 -20 -7 -20 -49 0 -48 19 -86
60 -118 18 -15 54 -17 45 -3 -3 6 1 10 9 10 10 0 13 6 9 17 -4 11 -3 14 5 9 7
-4 12 -1 12 9 0 9 4 14 9 11 4 -3 8 17 8 44 0 27 -4 47 -8 44 -5 -3 -9 -1 -9
5 0 12 -57 41 -82 41 -10 0 -18 -4 -18 -10z"/>
<path d="M8230 3901 c-7 -11 -18 -17 -22 -14 -5 3 -9 -1 -7 -8 3 -27 -1 -40
-12 -34 -6 4 -10 1 -8 -6 4 -31 -2 -70 -9 -65 -4 2 -8 -6 -8 -19 0 -13 4 -21
9 -18 5 3 6 -5 3 -18 -3 -13 -3 -18 0 -11 3 6 16 12 28 12 12 0 39 16 60 35
21 19 32 35 25 35 -9 0 -10 3 -4 8 11 7 35 48 35 57 0 4 -6 3 -12 -1 -10 -6
-10 -4 0 7 14 16 16 43 2 34 -5 -3 -10 1 -10 9 0 23 -52 21 -70 -3z"/>
<path d="M1810 3882 c-15 -17 -15 -92 0 -102 7 -4 11 -11 9 -15 -4 -14 26 -45
44 -45 10 0 15 5 12 10 -12 19 7 10 25 -12 10 -13 22 -20 26 -16 4 5 0 16 -9
26 -10 10 -17 32 -17 49 0 37 -19 93 -31 93 -5 0 -9 6 -9 13 0 17 -33 16 -50
-1z"/>
<path d="M1900 3679 c0 -5 5 -7 10 -4 6 3 10 8 10 11 0 2 -4 4 -10 4 -5 0 -10
-5 -10 -11z"/>
<path d="M8116 3668 c4 -6 3 -8 -4 -5 -14 9 -43 -3 -36 -14 3 -5 0 -9 -5 -9
-6 0 -11 -12 -11 -27 0 -22 -2 -25 -10 -13 -8 12 -10 10 -10 -8 0 -13 -4 -21
-8 -18 -9 5 -11 -2 -14 -54 -1 -16 -5 -27 -10 -24 -5 4 -4 -3 4 -15 17 -27 75
-29 85 -3 8 21 33 47 34 35 0 -9 15 23 34 74 7 18 9 30 4 27 -9 -5 -13 16 -10
43 1 8 -5 10 -15 6 -12 -4 -15 -3 -10 5 4 7 1 12 -9 12 -10 0 -13 -5 -9 -12z"/>
<path d="M1906 3663 c-54 -14 -58 -78 -8 -131 7 -8 9 -19 5 -25 -3 -7 -3 -9 1
-5 5 4 19 3 32 -2 28 -11 57 11 47 37 -4 10 -2 14 4 10 5 -3 10 0 10 8 0 8 -4
15 -9 15 -4 0 -8 12 -8 26 0 14 -4 23 -10 19 -6 -4 -10 6 -10 22 0 22 -2 25
-10 13 -8 -13 -10 -12 -10 3 0 18 -2 18 -34 10z"/>
<path d="M2002 3393 c1 -5 -4 -19 -11 -32 -8 -14 -9 -21 -2 -17 6 4 11 2 11
-3 0 -6 -6 -11 -12 -11 -10 0 -10 -2 -1 -8 7 -5 14 -20 15 -34 1 -15 5 -26 9
-25 4 1 7 -2 8 -6 2 -31 81 -51 97 -25 12 19 4 79 -12 95 -8 8 -12 19 -9 24 4
5 0 9 -7 9 -7 0 -19 9 -26 20 -11 19 -65 30 -60 13z"/>
<path d="M2196 3128 c3 -4 -4 -8 -15 -8 -13 0 -21 -7 -22 -17 -2 -36 3 -68 13
-74 6 -4 8 -11 4 -17 -3 -5 1 -15 9 -22 8 -7 15 -19 15 -27 0 -8 5 -11 10 -8
9 5 14 -6 12 -25 0 -3 7 -6 16 -7 10 -1 22 -2 27 -3 24 -5 35 2 35 23 0 18 2
19 10 7 7 -11 10 -4 10 28 0 23 -4 42 -10 42 -5 0 -10 9 -10 20 0 11 -4 20
-10 20 -5 0 -9 3 -8 8 5 17 -28 52 -50 52 -13 0 -21 4 -18 8 3 5 -1 9 -9 9 -8
0 -12 -4 -9 -9z"/>
<path d="M2356 2825 c-11 -8 -14 -15 -7 -15 7 0 9 -5 4 -12 -12 -20 -12 -39 0
-31 6 4 8 0 4 -10 -3 -9 0 -23 8 -31 8 -7 11 -16 8 -20 -4 -3 1 -6 10 -6 10 0
17 -4 17 -10 0 -5 16 -10 36 -10 61 0 84 45 44 88 -11 12 -20 26 -20 32 0 6
-7 13 -15 16 -8 4 -13 9 -11 13 9 14 -59 10 -78 -4z"/>
<path d="M2652 2544 c-15 -16 -17 -98 -2 -89 6 3 10 -1 10 -9 0 -19 46 -66 65
-66 7 0 15 -6 17 -12 3 -8 15 -2 32 16 18 20 23 33 16 40 -5 5 -10 17 -10 27
0 9 -14 30 -30 48 -17 17 -27 31 -23 31 4 0 -1 6 -12 14 -25 16 -47 17 -63 0z"/>
</g>
</svg>
